<svg width="1728" height="235" viewBox="0 0 1728 235" fill="none" xmlns="http://www.w3.org/2000/svg">
<path d="M0 148.932L57.6333 138.972C115.267 129.384 230.533 108.906 345.8 89.359C461.067 69.8117 576.333 49.3336 691.6 69.5325C806.867 89.359 922.133 148.932 1037.4 188.678C1152.67 228.052 1267.93 248.53 1383.2 223.397C1498.47 198.265 1613.73 129.384 1671.37 94.2923L1729 59.5727V0H1671.37C1613.73 0 1498.47 0 1383.2 0C1267.93 0 1152.67 0 1037.4 0C922.133 0 806.867 0 691.6 0C576.333 0 461.067 0 345.8 0C230.533 0 115.267 0 57.6333 0H0V148.932Z" fill="#F6EBD3"/>
</svg>
